<?xml version="1.0" encoding="UTF-8" standalone="no"?><!DOCTYPE svg PUBLIC "-//W3C//DTD SVG 1.1//EN" "http://www.w3.org/Graphics/SVG/1.1/DTD/svg11.dtd"><svg width="100%" height="100%" viewBox="0 0 150 48" version="1.1" xmlns="http://www.w3.org/2000/svg" xmlns:xlink="http://www.w3.org/1999/xlink" xml:space="preserve" xmlns:serif="http://www.serif.com/" style="fill-rule:evenodd;clip-rule:evenodd;stroke-linejoin:round;stroke-miterlimit:2;"><path id="star" d="M25.179,0l-5.944,18.293l-19.235,0l15.561,11.306l-5.944,18.294l15.562,-11.306l15.561,11.306l-5.944,-18.294l15.561,-11.306l-19.234,0l-5.944,-18.293Z" style="fill:#f00;fill-rule:nonzero;"/><path d="M25.179,0l-5.944,18.293l-19.235,0l15.561,11.306l-5.944,18.294l15.562,-11.306l15.561,11.306l-5.944,-18.294l15.561,-11.306l-19.234,0l-5.944,-18.293Zm-5.087,19.473l-16.462,0l13.318,9.676l-5.087,15.656l13.318,-9.676l13.318,9.676l-5.087,-15.656l13.317,-9.676l-16.461,0l-5.087,-15.656l-5.087,15.656Z"/><path id="hammer-and-sickle" d="M24.518,11.89l0,0l0,0l0,0c3.207,0.845 6.039,2.764 7.97,5.075c2.528,3.023 3.637,6.71 3.543,9.569c-0.078,2.378 -0.828,4.453 -2.068,6.052c1.229,1.159 2.458,2.317 3.686,3.473c0.728,0.731 0.724,1.912 -0.009,2.638c-0.732,0.726 -1.916,0.722 -2.644,-0.009c-1.194,-1.293 -2.405,-2.572 -3.626,-3.846c-1.419,0.811 -3.095,1.241 -4.928,1.198c-2.934,-0.069 -5.559,-1.384 -7.309,-3.443c-0.1,0.411 -0.38,0.756 -0.762,0.938c-0.02,0.014 -0.042,0.027 -0.069,0.04c-1.141,0.546 -2.039,1.517 -2.457,2.708c-0.188,0.595 -0.57,1.202 -1.08,1.715c-0.899,0.902 -2.049,1.371 -2.895,1.18c-0.09,0.04 -0.187,0.06 -0.285,0.061c-0.392,0 -0.709,-0.317 -0.709,-0.708c0,-0.077 0.013,-0.154 0.039,-0.228c-0.258,-0.846 0.2,-2.051 1.136,-2.993c0.474,-0.475 1.03,-0.841 1.586,-1.044c0.01,-0.005 0.02,-0.01 0.031,-0.014c1.201,-0.406 2.193,-1.294 2.758,-2.425c0.171,-0.512 0.619,-0.882 1.156,-0.952c0.213,-0.251 0.526,-0.396 0.856,-0.396c0.138,0 0.274,0.025 0.402,0.074l0.752,-0.631c1.359,1.502 3.327,2.446 5.516,2.446c1.138,0 2.218,-0.255 3.184,-0.711c-2.728,-2.809 -5.469,-5.608 -8.139,-8.464l-3.209,3.178l-3.402,-3.417l6.804,-6.74l6.014,0.831l-4.323,4.282c2.939,2.774 5.882,5.555 8.823,8.332c1.056,-1.279 1.687,-2.915 1.676,-4.699c-0.011,-1.996 -0.57,-4.492 -1.84,-6.883c-1.254,-2.358 -3.379,-4.615 -6.178,-6.187Z" style="fill:#ffd700;fill-rule:nonzero;"/><path d="M23.938,12.917c-0.418,-0.235 -0.661,-0.711 -0.586,-1.205c0.091,-0.595 0.614,-1.026 1.216,-1.001l0,0c0.086,0.004 0.171,0.017 0.254,0.04l-0.003,-0.002l0.004,0.001c3.447,0.91 6.493,2.973 8.57,5.458c2.736,3.273 3.918,7.27 3.817,10.365c-0.073,2.229 -0.684,4.216 -1.7,5.851l2.948,2.776l0.027,0.027c1.189,1.194 1.182,3.122 -0.015,4.308c-1.194,1.183 -3.124,1.176 -4.31,-0.015l-0.03,-0.032c-0.992,-1.073 -1.996,-2.138 -3.007,-3.197c-1.405,0.637 -2.995,0.968 -4.709,0.928c-2.764,-0.065 -5.281,-1.12 -7.177,-2.827c-0.091,0.063 -0.186,0.12 -0.285,0.171c-0.043,0.026 -0.089,0.051 -0.141,0.076c-0.859,0.411 -1.539,1.138 -1.853,2.035l0.012,-0.036c-0.239,0.759 -0.718,1.538 -1.369,2.193c-1.11,1.113 -2.535,1.651 -3.651,1.55c-0.119,0.025 -0.241,0.037 -0.365,0.037c-1.044,0 -1.888,-0.845 -1.888,-1.886l0.013,-0.221c-0.18,-1.141 0.335,-2.656 1.506,-3.835c0.587,-0.587 1.277,-1.038 1.965,-1.299c0.035,-0.015 0.071,-0.03 0.109,-0.043c0.888,-0.3 1.622,-0.95 2.053,-1.779c0.285,-0.755 0.905,-1.328 1.668,-1.559c0.402,-0.319 0.905,-0.497 1.428,-0.497l0.058,0.002l0.336,-0.283c0.486,-0.408 1.207,-0.358 1.633,0.112c1.144,1.265 2.8,2.059 4.642,2.059c0.342,0 0.678,-0.027 1.006,-0.081c-2.009,-2.065 -4.017,-4.132 -5.991,-6.225l-2.348,2.326c-0.462,0.458 -1.208,0.455 -1.666,-0.006l-3.403,-3.417c-0.221,-0.222 -0.345,-0.523 -0.343,-0.836c0.001,-0.314 0.126,-0.614 0.349,-0.834l6.804,-6.74c0.261,-0.258 0.627,-0.38 0.991,-0.33l6.014,0.83c0.445,0.062 0.816,0.37 0.958,0.796c0.142,0.426 0.03,0.895 -0.289,1.211l-3.456,3.423l6.923,6.539c0.452,-0.86 0.706,-1.84 0.7,-2.879c-0.011,-1.837 -0.533,-4.134 -1.703,-6.335c-1.158,-2.18 -3.127,-4.26 -5.713,-5.713l-0.003,-0.001Zm6.758,5.16c-1.254,-2.358 -3.379,-4.615 -6.178,-6.187c3.207,0.845 6.039,2.764 7.97,5.075c2.528,3.023 3.637,6.71 3.543,9.569c-0.078,2.378 -0.828,4.453 -2.068,6.052c1.229,1.159 2.458,2.317 3.686,3.473c0.728,0.731 0.724,1.912 -0.009,2.638c-0.732,0.726 -1.916,0.722 -2.644,-0.009c-1.194,-1.293 -2.405,-2.572 -3.626,-3.846c-1.419,0.811 -3.095,1.241 -4.928,1.198c-2.934,-0.069 -5.559,-1.384 -7.309,-3.443c-0.1,0.411 -0.38,0.756 -0.762,0.938c-0.02,0.014 -0.042,0.027 -0.069,0.04c-1.141,0.546 -2.039,1.517 -2.457,2.708c-0.188,0.595 -0.57,1.202 -1.08,1.715c-0.899,0.902 -2.049,1.371 -2.895,1.18c-0.09,0.04 -0.187,0.06 -0.285,0.061c-0.392,0 -0.709,-0.317 -0.709,-0.708c0,-0.077 0.013,-0.154 0.039,-0.228c-0.258,-0.846 0.2,-2.051 1.136,-2.993c0.474,-0.475 1.03,-0.841 1.586,-1.044c0.01,-0.005 0.02,-0.01 0.031,-0.014c1.201,-0.406 2.193,-1.294 2.758,-2.425c0.171,-0.512 0.619,-0.882 1.156,-0.952c0.213,-0.251 0.526,-0.396 0.856,-0.396c0.138,0 0.274,0.025 0.402,0.074l0.752,-0.631c1.359,1.502 3.327,2.446 5.516,2.446c1.138,0 2.218,-0.255 3.184,-0.711c-2.728,-2.809 -5.469,-5.608 -8.139,-8.464l-3.209,3.178l-3.402,-3.417l6.804,-6.74l6.014,0.831l-4.323,4.282c2.939,2.774 5.882,5.555 8.823,8.332c1.056,-1.279 1.687,-2.915 1.676,-4.699c-0.011,-1.996 -0.57,-4.492 -1.84,-6.883Z"/><g id="openra-text"><path d="M61.72,25.118c0,-0.8 0.128,-1.536 0.384,-2.208c0.256,-0.672 0.616,-1.256 1.08,-1.752c0.464,-0.496 1.016,-0.88 1.656,-1.152c0.64,-0.272 1.352,-0.408 2.136,-0.408c0.784,0 1.496,0.136 2.136,0.408c0.64,0.272 1.192,0.656 1.656,1.152c0.464,0.496 0.816,1.084 1.056,1.764c0.24,0.68 0.36,1.412 0.36,2.196c0,0.8 -0.128,1.536 -0.384,2.208c-0.256,0.672 -0.616,1.256 -1.08,1.752c-0.464,0.496 -1.016,0.88 -1.656,1.152c-0.64,0.272 -1.344,0.408 -2.112,0.408c-0.768,0 -1.472,-0.136 -2.112,-0.408c-0.64,-0.272 -1.192,-0.656 -1.656,-1.152c-0.464,-0.496 -0.824,-1.084 -1.08,-1.764c-0.256,-0.68 -0.384,-1.412 -0.384,-2.196Zm-3.624,0c0,1.264 0.216,2.436 0.648,3.516c0.432,1.08 1.044,2.016 1.836,2.808c0.792,0.792 1.728,1.408 2.808,1.848c1.08,0.44 2.268,0.66 3.564,0.66c1.296,0 2.484,-0.22 3.564,-0.66c1.08,-0.44 2.016,-1.056 2.808,-1.848c0.792,-0.792 1.408,-1.732 1.848,-2.82c0.44,-1.088 0.66,-2.256 0.66,-3.504c0,-1.28 -0.22,-2.452 -0.66,-3.516c-0.44,-1.064 -1.064,-1.984 -1.872,-2.76c-0.808,-0.776 -1.748,-1.38 -2.82,-1.812c-1.072,-0.432 -2.248,-0.648 -3.528,-0.648c-1.264,0 -2.436,0.216 -3.516,0.648c-1.08,0.432 -2.02,1.036 -2.82,1.812c-0.8,0.776 -1.42,1.696 -1.86,2.76c-0.44,1.064 -0.66,2.236 -0.66,3.516Z" style="fill:#fff;fill-rule:nonzero;"/><path d="M81.28,38.798l0,-16.32l-3.12,0l0,16.32l3.12,0Zm9.072,-10.8c0,-1.264 -0.252,-2.332 -0.756,-3.204c-0.504,-0.872 -1.16,-1.532 -1.968,-1.98c-0.808,-0.448 -1.676,-0.672 -2.604,-0.672c-0.72,0 -1.364,0.136 -1.932,0.408c-0.568,0.272 -1.052,0.664 -1.452,1.176c-0.4,0.512 -0.704,1.128 -0.912,1.848c-0.208,0.72 -0.312,1.528 -0.312,2.424c0,0.896 0.104,1.704 0.312,2.424c0.208,0.72 0.512,1.336 0.912,1.848c0.4,0.512 0.884,0.9 1.452,1.164c0.568,0.264 1.212,0.396 1.932,0.396c0.928,0 1.796,-0.22 2.604,-0.66c0.808,-0.44 1.464,-1.096 1.968,-1.968c0.504,-0.872 0.756,-1.94 0.756,-3.204Zm-3.264,0c0,0.656 -0.136,1.212 -0.408,1.668c-0.272,0.456 -0.632,0.804 -1.08,1.044c-0.448,0.24 -0.944,0.36 -1.488,0.36c-0.336,0 -0.672,-0.064 -1.008,-0.192c-0.336,-0.128 -0.64,-0.324 -0.912,-0.588c-0.272,-0.264 -0.492,-0.588 -0.66,-0.972c-0.168,-0.384 -0.252,-0.824 -0.252,-1.32c0,-0.512 0.084,-0.956 0.252,-1.332c0.168,-0.376 0.388,-0.7 0.66,-0.972c0.272,-0.272 0.576,-0.468 0.912,-0.588c0.336,-0.12 0.672,-0.18 1.008,-0.18c0.544,0 1.04,0.12 1.488,0.36c0.448,0.24 0.808,0.588 1.08,1.044c0.272,0.456 0.408,1.012 0.408,1.668Z" style="fill:#fff;fill-rule:nonzero;"/><path d="M97.888,33.758c1.344,0 2.488,-0.26 3.432,-0.78c0.944,-0.52 1.704,-1.3 2.28,-2.34l-2.736,-0.864c-0.304,0.544 -0.708,0.948 -1.212,1.212c-0.504,0.264 -1.092,0.396 -1.764,0.396c-0.608,0 -1.124,-0.136 -1.548,-0.408c-0.424,-0.272 -0.748,-0.668 -0.972,-1.188c-0.224,-0.52 -0.328,-1.14 -0.312,-1.86c0,-0.592 0.06,-1.1 0.18,-1.524c0.12,-0.424 0.3,-0.788 0.54,-1.092c0.24,-0.304 0.532,-0.524 0.876,-0.66c0.344,-0.136 0.74,-0.204 1.188,-0.204c0.496,0 0.928,0.108 1.296,0.324c0.368,0.216 0.652,0.516 0.852,0.9c0.2,0.384 0.3,0.848 0.3,1.392c0,0.112 -0.028,0.248 -0.084,0.408c-0.056,0.16 -0.124,0.296 -0.204,0.408l0.864,-1.104l-7.152,0l0,1.896l9.888,0c0,-0.096 0.008,-0.216 0.024,-0.36c0.016,-0.144 0.024,-0.296 0.024,-0.456c0,-1.184 -0.228,-2.196 -0.684,-3.036c-0.456,-0.84 -1.112,-1.48 -1.968,-1.92c-0.856,-0.44 -1.892,-0.66 -3.108,-0.66c-0.928,0 -1.76,0.132 -2.496,0.396c-0.736,0.264 -1.364,0.648 -1.884,1.152c-0.52,0.504 -0.916,1.112 -1.188,1.824c-0.272,0.712 -0.408,1.508 -0.408,2.388c0,1.168 0.244,2.184 0.732,3.048c0.488,0.864 1.18,1.532 2.076,2.004c0.896,0.472 1.952,0.708 3.168,0.708Z" style="fill:#fff;fill-rule:nonzero;"/><path d="M113.128,26.798l0,6.72l3.216,0l0,-7.056c0,-0.88 -0.144,-1.636 -0.432,-2.268c-0.288,-0.632 -0.716,-1.116 -1.284,-1.452c-0.568,-0.336 -1.292,-0.504 -2.172,-0.504c-0.784,0 -1.456,0.164 -2.016,0.492c-0.56,0.328 -1.008,0.804 -1.344,1.428l0,-1.68l-3.12,0l0,11.04l3.12,0l0,-6.72c0,-0.464 0.096,-0.864 0.288,-1.2c0.192,-0.336 0.452,-0.596 0.78,-0.78c0.328,-0.184 0.708,-0.276 1.14,-0.276c0.432,0 0.784,0.084 1.056,0.252c0.272,0.168 0.468,0.424 0.588,0.768c0.12,0.344 0.18,0.756 0.18,1.236Z" style="fill:#fff;fill-rule:nonzero;"/><path d="M123.544,25.694l5.016,7.824l4.104,0l-5.472,-7.824l-3.648,0Zm-3.816,-8.976l0,16.8l3.432,0l0,-16.8l-3.432,0Zm2.088,2.976l3.336,0c0.592,0 1.108,0.096 1.548,0.288c0.44,0.192 0.78,0.476 1.02,0.852c0.24,0.376 0.36,0.82 0.36,1.332c0,0.544 -0.12,1 -0.36,1.368c-0.24,0.368 -0.58,0.652 -1.02,0.852c-0.44,0.2 -0.956,0.3 -1.548,0.3l-3.336,0l0,2.736l3.552,0c1.328,0 2.46,-0.224 3.396,-0.672c0.936,-0.448 1.652,-1.072 2.148,-1.872c0.496,-0.8 0.744,-1.728 0.744,-2.784c0,-1.072 -0.248,-2.008 -0.744,-2.808c-0.496,-0.8 -1.212,-1.428 -2.148,-1.884c-0.936,-0.456 -2.068,-0.684 -3.396,-0.684l-3.552,0l0,2.976Z" style="fill:#fff;fill-rule:nonzero;"/><path d="M136.912,29.726l8.88,0l-0.408,-2.76l-8.064,0l-0.408,2.76Zm4.392,-7.536l2.52,5.808l-0.024,0.912l2.136,4.608l3.912,0l-8.544,-17.808l-8.496,17.808l3.888,0l2.184,-4.776l-0.072,-0.768l2.496,-5.784Z" style="fill:#fff;fill-rule:nonzero;"/></g></svg>