<?xml version="1.0" encoding="UTF-8"?>
<svg clip-rule="evenodd" fill-rule="evenodd" stroke-linejoin="round" stroke-miterlimit="2" version="1.1" viewBox="0 0 150 48" xml:space="preserve" xmlns="http://www.w3.org/2000/svg" xmlns:cc="http://creativecommons.org/ns#" xmlns:dc="http://purl.org/dc/elements/1.1/" xmlns:rdf="http://www.w3.org/1999/02/22-rdf-syntax-ns#" xmlns:xlink="http://www.w3.org/1999/xlink"><metadata><rdf:RDF><cc:Work rdf:about=""><dc:format>image/svg+xml</dc:format><dc:type rdf:resource="http://purl.org/dc/dcmitype/StillImage"/><dc:title/></cc:Work></rdf:RDF></metadata><defs><linearGradient id="linearGradient3924" x1="65.92" x2="89.047" y1="69.057" y2="92.379" gradientTransform="matrix(.81356 0 0 .81356 -4.316 -4.6224)" gradientUnits="userSpaceOnUse"><stop stop-color="#ffd300" offset="0"/><stop stop-color="#a07100" offset="1"/></linearGradient><linearGradient id="linearGradient3932" x1="118.39" x2="173.78" y1="128.5" y2="236.97" gradientUnits="userSpaceOnUse"><stop stop-color="#f00" offset="0"/><stop stop-color="#400" offset="1"/></linearGradient></defs><g id="openra-text" fill="#fff" fill-rule="nonzero"><path d="m61.72 25.118c0-0.8 0.128-1.536 0.384-2.208s0.616-1.256 1.08-1.752 1.016-0.88 1.656-1.152 1.352-0.408 2.136-0.408 1.496 0.136 2.136 0.408 1.192 0.656 1.656 1.152 0.816 1.084 1.056 1.764 0.36 1.412 0.36 2.196c0 0.8-0.128 1.536-0.384 2.208s-0.616 1.256-1.08 1.752-1.016 0.88-1.656 1.152-1.344 0.408-2.112 0.408-1.472-0.136-2.112-0.408-1.192-0.656-1.656-1.152-0.824-1.084-1.08-1.764-0.384-1.412-0.384-2.196zm-3.624 0c0 1.264 0.216 2.436 0.648 3.516s1.044 2.016 1.836 2.808 1.728 1.408 2.808 1.848 2.268 0.66 3.564 0.66 2.484-0.22 3.564-0.66 2.016-1.056 2.808-1.848 1.408-1.732 1.848-2.82 0.66-2.256 0.66-3.504c0-1.28-0.22-2.452-0.66-3.516s-1.064-1.984-1.872-2.76-1.748-1.38-2.82-1.812-2.248-0.648-3.528-0.648c-1.264 0-2.436 0.216-3.516 0.648s-2.02 1.036-2.82 1.812-1.42 1.696-1.86 2.76-0.66 2.236-0.66 3.516z"/><path d="m81.28 38.798v-16.32h-3.12v16.32h3.12zm9.072-10.8c0-1.264-0.252-2.332-0.756-3.204s-1.16-1.532-1.968-1.98-1.676-0.672-2.604-0.672c-0.72 0-1.364 0.136-1.932 0.408s-1.052 0.664-1.452 1.176-0.704 1.128-0.912 1.848-0.312 1.528-0.312 2.424 0.104 1.704 0.312 2.424 0.512 1.336 0.912 1.848 0.884 0.9 1.452 1.164 1.212 0.396 1.932 0.396c0.928 0 1.796-0.22 2.604-0.66s1.464-1.096 1.968-1.968 0.756-1.94 0.756-3.204zm-3.264 0c0 0.656-0.136 1.212-0.408 1.668s-0.632 0.804-1.08 1.044-0.944 0.36-1.488 0.36c-0.336 0-0.672-0.064-1.008-0.192s-0.64-0.324-0.912-0.588-0.492-0.588-0.66-0.972-0.252-0.824-0.252-1.32c0-0.512 0.084-0.956 0.252-1.332s0.388-0.7 0.66-0.972 0.576-0.468 0.912-0.588 0.672-0.18 1.008-0.18c0.544 0 1.04 0.12 1.488 0.36s0.808 0.588 1.08 1.044 0.408 1.012 0.408 1.668z"/><path d="m97.888 33.758c1.344 0 2.488-0.26 3.432-0.78s1.704-1.3 2.28-2.34l-2.736-0.864c-0.304 0.544-0.708 0.948-1.212 1.212s-1.092 0.396-1.764 0.396c-0.608 0-1.124-0.136-1.548-0.408s-0.748-0.668-0.972-1.188-0.328-1.14-0.312-1.86c0-0.592 0.06-1.1 0.18-1.524s0.3-0.788 0.54-1.092 0.532-0.524 0.876-0.66 0.74-0.204 1.188-0.204c0.496 0 0.928 0.108 1.296 0.324s0.652 0.516 0.852 0.9 0.3 0.848 0.3 1.392c0 0.112-0.028 0.248-0.084 0.408s-0.124 0.296-0.204 0.408l0.864-1.104h-7.152v1.896h9.888c0-0.096 8e-3 -0.216 0.024-0.36s0.024-0.296 0.024-0.456c0-1.184-0.228-2.196-0.684-3.036s-1.112-1.48-1.968-1.92-1.892-0.66-3.108-0.66c-0.928 0-1.76 0.132-2.496 0.396s-1.364 0.648-1.884 1.152-0.916 1.112-1.188 1.824-0.408 1.508-0.408 2.388c0 1.168 0.244 2.184 0.732 3.048s1.18 1.532 2.076 2.004 1.952 0.708 3.168 0.708z"/><path d="m113.13 26.798v6.72h3.216v-7.056c0-0.88-0.144-1.636-0.432-2.268s-0.716-1.116-1.284-1.452-1.292-0.504-2.172-0.504c-0.784 0-1.456 0.164-2.016 0.492s-1.008 0.804-1.344 1.428v-1.68h-3.12v11.04h3.12v-6.72c0-0.464 0.096-0.864 0.288-1.2s0.452-0.596 0.78-0.78 0.708-0.276 1.14-0.276 0.784 0.084 1.056 0.252 0.468 0.424 0.588 0.768 0.18 0.756 0.18 1.236z"/><path d="m123.54 25.694 5.016 7.824h4.104l-5.472-7.824h-3.648zm-3.816-8.976v16.8h3.432v-16.8h-3.432zm2.088 2.976h3.336c0.592 0 1.108 0.096 1.548 0.288s0.78 0.476 1.02 0.852 0.36 0.82 0.36 1.332c0 0.544-0.12 1-0.36 1.368s-0.58 0.652-1.02 0.852-0.956 0.3-1.548 0.3h-3.336v2.736h3.552c1.328 0 2.46-0.224 3.396-0.672s1.652-1.072 2.148-1.872 0.744-1.728 0.744-2.784c0-1.072-0.248-2.008-0.744-2.808s-1.212-1.428-2.148-1.884-2.068-0.684-3.396-0.684h-3.552v2.976z"/><path d="m136.91 29.726h8.88l-0.408-2.76h-8.064l-0.408 2.76zm4.392-7.536 2.52 5.808-0.024 0.912 2.136 4.608h3.912l-8.544-17.808-8.496 17.808h3.888l2.184-4.776-0.072-0.768 2.496-5.784z"/></g><g transform="matrix(.52084 0 0 .52084 -.00015834 -1.0064)" stroke="#000" stroke-miterlimit="10"><polygon transform="matrix(.40678 0 0 .40678 -4.4746 -4.3052)" points="158 100.33 243 102.67 175.82 154.68 199.67 237.67 129.5 188.33 57.667 237.67 82.667 154 15 102.33 100.33 100.33 130.5 19.333" fill="url(#linearGradient3932)" stroke-width="8"/><path d="m26.305 44.915c-0.13546 0.6781 6.96 8.0392 7.5934 7.8643 0.34983-0.09641 5.6949-5.0168 5.6949-5.0168l13.966 15.051s-3.7965 2.1694-7.8643 1.7626c-4.0678-0.40678-6.4678-2.0701-11.119-7.1862-1.3562-1.4917-3.3901 0.94902-3.3901 0.94902l-2.4407-0.13546s-2.9829 1.0845-2.0339 2.9829c0.57519 1.1504-14.025 5.9915-8.4069 12.475 5.2881 6.1017 11.932-6.5085 12.881-7.1866 0.94942-0.6781 8.6778 15.458 30.237 5.6949 0 0 2.9634 3.0899 3.2542 3.1131 0.42224 0.0342 7.7288-6.469 7.7288-7.0454 0-0.49139-4.0678-4.3387-4.0678-4.3387s9.7627-11.526-1.2797-28.186c-0.80908-1.2207-4.9843-6.7501-10.601-10.392-3.2579-2.112-7.3993-4.5946-13.746-6.7106-2.0339-0.6781 2.4342 3.0102 7.3489 7.9717 2.8743 2.902 5.4936 6.4271 7.2952 8.8418 6.373 8.5424 5.5513 16.449 3.1188 20.339 0 0-7.2537-7.7898-13.831-14.915 0 0 6.0338-5.9662 5.6949-6.373-1.0633-1.2769-0.95308-1.3611-2.1698-2.1694 0 0-1.4587 0.45397-3.6712 0.53776-3.1224 0.11837-7.3428-0.09641-7.5828 0.13993-0.81559 0.8038-12.407 10.916-12.61 11.933z" fill="url(#linearGradient3924)" fill-rule="nonzero" stroke-width="1.7898"/></g></svg>
