<svg aria-hidden="true" style="position: absolute; width: 0; height: 0; overflow: hidden;" version="1.1" xmlns="http://www.w3.org/2000/svg" xmlns:xlink="http://www.w3.org/1999/xlink">
<defs>
<symbol id="icon-gamereplays" viewBox="0 0 32 32">
<path d="M30.413 3.951c0 0-3.885-3.951-14.42-3.951s-14.42 3.951-14.42 3.951c0 0-0.085 7.030 1.58 14.42 1.811 8.033 12.84 13.63 12.84 13.63s10.831-5.992 12.84-13.63c1.847-7.026 1.58-14.42 1.58-14.42zM16 4.543l2.084 6.415h6.745l-5.457 3.965 2.084 6.415-5.457-3.965-5.457 3.965 2.084-6.415-5.457-3.965h6.745l2.084-6.415z"></path>
</symbol>
<symbol id="icon-moddb" viewBox="0 0 32 32">
<path d="M12.774 17.113c-3.252-1.422-5.527-4.67-5.527-8.444 0-3.988 2.54-7.388 6.089-8.668v8.523c0 0.345 0.28 0.625 0.625 0.625 1.252 0 4.054 0 5.306 0 0.345 0 0.625-0.28 0.625-0.625 0-2.045 0-8.405 0-8.405 3.386 1.362 5.779 4.679 5.779 8.55 0 3.727-2.218 6.94-5.404 8.39v14.317c0 0.166-0.066 0.325-0.183 0.442s-0.276 0.183-0.442 0.183c-1.411 0-4.831 0-6.242 0-0.166 0-0.325-0.066-0.442-0.183s-0.183-0.276-0.183-0.442c0-2.825 0-14.262 0-14.262z"></path>
</symbol>
<symbol id="icon-steam" viewBox="0 0 32 32">
<path d="M15.972 0c-8.401 0-15.291 6.48-15.943 14.716l8.576 3.544c0.727-0.495 1.604-0.787 2.549-0.787 0.084 0 0.167 0.005 0.251 0.008l3.815-5.523v-0.079c0-3.327 2.704-6.032 6.032-6.032 3.325 0 6.032 2.708 6.032 6.036s-2.707 6.033-6.032 6.033h-0.14l-5.435 3.881c0 0.069 0.005 0.14 0.005 0.212 0 2.5-2.020 4.528-4.52 4.528-2.18 0-4.021-1.564-4.441-3.636l-6.14-2.543c1.901 6.716 8.067 11.64 15.391 11.64 8.836 0 15.999-7.164 15.999-16s-7.164-16-15.999-16zM10.053 24.28l-1.964-0.813c0.349 0.724 0.952 1.332 1.752 1.667 1.729 0.719 3.724-0.101 4.443-1.833 0.351-0.84 0.352-1.759 0.007-2.599s-1-1.495-1.836-1.844c-0.832-0.347-1.72-0.332-2.504-0.040l2.031 0.84c1.275 0.533 1.879 2 1.345 3.273-0.529 1.276-1.996 1.88-3.272 1.349zM25.273 11.876c0-2.216-1.804-4.020-4.020-4.020-2.22 0-4.020 1.804-4.020 4.020 0 2.22 1.8 4.020 4.020 4.020 2.217 0 4.020-1.8 4.020-4.020zM18.243 11.869c0-1.669 1.351-3.021 3.020-3.021 1.665 0 3.021 1.352 3.021 3.021 0 1.668-1.356 3.020-3.021 3.020-1.671 0-3.020-1.352-3.020-3.020z"></path>
</symbol>
<symbol id="icon-youtube" viewBox="0 0 32 32">
<path d="M31.327 8.273c-0.386-1.353-1.431-2.398-2.756-2.777l-0.028-0.007c-2.493-0.668-12.528-0.668-12.528-0.668s-10.009-0.013-12.528 0.668c-1.353 0.386-2.398 1.431-2.777 2.756l-0.007 0.028c-0.443 2.281-0.696 4.903-0.696 7.585 0 0.054 0 0.109 0 0.163l-0-0.008c-0 0.037-0 0.082-0 0.126 0 2.682 0.253 5.304 0.737 7.845l-0.041-0.26c0.386 1.353 1.431 2.398 2.756 2.777l0.028 0.007c2.491 0.669 12.528 0.669 12.528 0.669s10.008 0 12.528-0.669c1.353-0.386 2.398-1.431 2.777-2.756l0.007-0.028c0.425-2.233 0.668-4.803 0.668-7.429 0-0.099-0-0.198-0.001-0.297l0 0.015c0.001-0.092 0.001-0.201 0.001-0.31 0-2.626-0.243-5.196-0.708-7.687l0.040 0.258zM12.812 20.801v-9.591l8.352 4.803z"></path>
</symbol>
<symbol id="icon-reddit" viewBox="0 0 32 32">
<path d="M2.939 18.732c-0.080 0.368-0.121 0.747-0.121 1.129 0 4.591 5.869 8.332 13.085 8.332 7.213 0 13.083-3.739 13.083-8.332 0-0.365-0.039-0.728-0.109-1.079l-0.020-0.043c-0.028-0.073-0.039-0.147-0.039-0.22-0.403-1.567-1.489-2.988-3.061-4.137-0.060-0.021-0.117-0.052-0.168-0.093-0.035-0.027-0.060-0.056-0.089-0.085-2.389-1.645-5.808-2.677-9.595-2.677-3.753 0-7.139 1.012-9.528 2.628-0.019 0.024-0.039 0.044-0.065 0.065-0.052 0.044-0.112 0.080-0.173 0.1-1.608 1.149-2.723 2.583-3.139 4.164 0 0.077-0.019 0.152-0.049 0.228zM15.969 25.987c-2.392 0-4.076-0.519-5.151-1.596-0.231-0.232-0.231-0.609 0-0.843 0.235-0.22 0.613-0.22 0.847 0 0.84 0.839 2.247 1.257 4.304 1.257 2.056 0 3.455-0.4 4.292-1.239 0.22-0.219 0.6-0.219 0.839 0 0.22 0.24 0.22 0.62 0 0.86-1.079 1.077-2.753 1.597-5.149 1.597zM11.161 15.889c-1.219 0-2.236 1.020-2.236 2.236 0 1.213 1.017 2.2 2.236 2.2s2.201-0.987 2.201-2.2c0-1.216-0.985-2.236-2.201-2.236zM20.805 15.889c-1.219 0-2.237 1.020-2.237 2.236 0 1.213 1.019 2.2 2.237 2.2s2.201-0.987 2.201-2.2c0-1.216-0.985-2.236-2.201-2.236zM26.869 13.763c1.383 1.111 2.4 2.428 2.919 3.872 0.6-0.448 0.959-1.152 0.959-1.932 0-1.336-1.087-2.421-2.424-2.421-0.532 0-1.037 0.172-1.453 0.484zM3.615 13.284c-1.337 0-2.423 1.088-2.423 2.424 0 0.724 0.319 1.397 0.859 1.852 0.535-1.439 1.563-2.737 2.951-3.835-0.403-0.28-0.884-0.439-1.385-0.439zM15.904 29.389c-7.875 0-14.279-4.273-14.279-9.523 0-0.367 0.031-0.725 0.091-1.079-1.057-0.657-1.716-1.816-1.716-3.085 0-1.995 1.636-3.617 3.633-3.617 0.899 0 1.737 0.328 2.396 0.909 2.475-1.588 5.809-2.588 9.483-2.656l2.416-7.365 0.539 0.127c0 0 0.021 0 0.021 0.003l5.631 1.324c0.459-1.064 1.517-1.813 2.753-1.813 1.639 0 2.975 1.339 2.975 2.979 0 1.643-1.337 2.979-2.975 2.979s-2.973-1.339-2.973-2.973l-5.135-1.216-1.956 5.969c3.533 0.14 6.729 1.139 9.125 2.695 0.659-0.619 1.525-0.959 2.444-0.959 1.997 0 3.624 1.617 3.624 3.615 0 1.316-0.72 2.515-1.837 3.153 0.039 0.34 0.079 0.659 0.079 0.999-0.020 5.251-6.408 9.524-14.293 9.524zM26.809 3.807c-0.987 0-1.787 0.799-1.787 1.784 0 0.984 0.8 1.787 1.787 1.787 0.976 0 1.773-0.8 1.773-1.779 0-0.977-0.797-1.776-1.796-1.776z"></path>
</symbol>
<symbol id="icon-twitter" viewBox="0 0 32 32">
<path d="M31.939 6.092c-1.18 0.519-2.44 0.872-3.767 1.033 1.352-0.815 2.392-2.099 2.884-3.631-1.268 0.74-2.673 1.279-4.169 1.579-1.195-1.279-2.897-2.079-4.788-2.079-3.623 0-6.56 2.937-6.56 6.556 0 0.52 0.060 1.020 0.169 1.499-5.453-0.257-10.287-2.876-13.521-6.835-0.569 0.963-0.888 2.081-0.888 3.3 0 2.28 1.16 4.284 2.917 5.461-1.076-0.035-2.088-0.331-2.971-0.821v0.081c0 3.18 2.257 5.832 5.261 6.436-0.551 0.148-1.132 0.228-1.728 0.228-0.419 0-0.82-0.040-1.221-0.115 0.841 2.604 3.26 4.503 6.139 4.556-2.24 1.759-5.079 2.807-8.136 2.807-0.52 0-1.039-0.031-1.56-0.089 2.919 1.859 6.357 2.945 10.076 2.945 12.072 0 18.665-9.995 18.665-18.648 0-0.279 0-0.56-0.020-0.84 1.281-0.919 2.4-2.080 3.28-3.397z"></path>
</symbol>
<symbol id="icon-facebook" viewBox="0 0 32 32">
<path d="M31.997 15.999c0-8.836-7.163-15.999-15.999-15.999s-15.999 7.163-15.999 15.999c0 7.985 5.851 14.604 13.499 15.804v-11.18h-4.062v-4.625h4.062v-3.525c0-4.010 2.389-6.225 6.043-6.225 1.75 0 3.581 0.313 3.581 0.313v3.937h-2.017c-1.987 0-2.607 1.233-2.607 2.498v3.001h4.437l-0.709 4.625h-3.728v11.18c7.649-1.2 13.499-7.819 13.499-15.804z"></path>
</symbol>
<symbol id="icon-itch" viewBox="0 0 32 32">
<path d="M4.172 1.784c-1.396 0.829-4.145 3.988-4.172 4.816v1.372c0 1.739 1.625 3.267 3.1 3.267 1.772 0 3.248-1.468 3.248-3.211 0 1.743 1.425 3.211 3.197 3.211s3.152-1.468 3.152-3.211c0 1.743 1.516 3.211 3.288 3.211h0.032c1.772 0 3.288-1.468 3.288-3.211 0 1.743 1.38 3.211 3.152 3.211s3.197-1.468 3.197-3.211c0 1.743 1.476 3.211 3.248 3.211 1.476 0 3.1-1.528 3.1-3.267v-1.372c-0.027-0.828-2.776-3.988-4.172-4.816-4.339-0.152-7.347-0.179-11.828-0.177s-10.593 0.071-11.831 0.177zM12.675 10.42c-0.177 0.307-0.384 0.571-0.623 0.801l-0.001 0.001c-0.669 0.653-1.585 1.059-2.596 1.059-0.001 0-0.003 0-0.004 0-1.012 0-1.929-0.404-2.599-1.060v0c-0.243-0.237-0.427-0.491-0.595-0.787h-0.001c-0.168 0.296-0.403 0.549-0.647 0.787-0.669 0.655-1.587 1.059-2.599 1.059-0.001 0-0.003 0-0.004 0v0c-0.121 0-0.248-0.033-0.351-0.069-0.143 1.483-0.203 2.9-0.224 3.933v0.005c-0.003 0.525-0.005 0.956-0.008 1.556 0.028 3.112-0.308 10.085 1.372 11.799 2.604 0.607 7.395 0.884 12.201 0.885h0.001c4.807-0.001 9.597-0.279 12.201-0.885 1.68-1.713 1.344-8.688 1.372-11.799-0.003-0.6-0.005-1.031-0.008-1.556v-0.005c-0.021-1.033-0.081-2.451-0.224-3.933-0.103 0.035-0.229 0.069-0.351 0.069-0.001 0-0.003 0-0.003 0-1.012 0-1.929-0.404-2.599-1.060h0.001c-0.243-0.237-0.477-0.491-0.647-0.787h-0.001c-0.169 0.296-0.353 0.549-0.595 0.787-0.669 0.655-1.587 1.060-2.597 1.060-0.001 0-0.003 0-0.004 0v0c-1.011 0-1.927-0.405-2.596-1.060-0.239-0.232-0.445-0.496-0.615-0.785l-0.009-0.017c-0.176 0.307-0.381 0.571-0.617 0.803v0c-0.669 0.655-1.587 1.060-2.599 1.060-0.001 0-0.003 0-0.004 0v0c-0.035 0-0.071-0.001-0.105-0.003h-0.001c-0.035 0.001-0.071 0.003-0.107 0.003-0.001 0-0.003 0-0.004 0-1.012 0-1.929-0.404-2.599-1.060h0.001c-0.237-0.232-0.441-0.496-0.608-0.785zM10.003 13.875v0.001h0.001c1.059 0.003 1.997 0 3.163 1.271 0.916-0.096 1.875-0.144 2.833-0.143h0.001c0.959-0.001 1.916 0.047 2.833 0.143 1.164-1.271 2.104-1.269 3.163-1.271h0.001v-0.001c0.5 0 2.5 0 3.893 3.913l1.496 5.368c1.109 3.993-0.355 4.092-2.181 4.095-2.708-0.101-4.208-2.068-4.208-4.035-1.499 0.245-3.248 0.368-4.997 0.368h-0.001c-1.749 0-3.499-0.123-4.997-0.368 0 1.967-1.5 3.933-4.208 4.035-1.827-0.004-3.291-0.101-2.181-4.095l1.497-5.368c1.393-3.913 3.393-3.913 3.892-3.913zM16 16.951v0.001c-0.003 0.003-2.851 2.619-3.364 3.549l1.865-0.075v1.627c0 0.076 0.748 0.045 1.497 0.011h0.001c0.749 0.035 1.497 0.065 1.497-0.011v-1.627l1.865 0.075c-0.512-0.931-3.364-3.549-3.364-3.549v-0.001z"></path>
</symbol>
<symbol id="icon-discord" viewBox="0 0 32 32">
<path d="M26.963 0c1.875 0 3.387 1.516 3.476 3.3v28.7l-3.569-3.031-1.96-1.784-2.139-1.864 0.893 2.94h-18.717c-1.869 0-3.387-1.42-3.387-3.301v-21.653c0-1.784 1.52-3.303 3.393-3.303h22zM18.805 7.577h-0.040l-0.269 0.267c2.764 0.8 4.101 2.049 4.101 2.049-1.781-0.891-3.387-1.336-4.992-1.516-1.16-0.18-2.32-0.085-3.3 0h-0.267c-0.627 0-1.96 0.267-3.747 0.98-0.623 0.271-0.98 0.448-0.98 0.448s1.336-1.336 4.28-2.049l-0.18-0.18c0 0-2.229-0.085-4.636 1.693 0 0-2.407 4.192-2.407 9.36 0 0 1.333 2.32 4.991 2.408 0 0 0.533-0.711 1.073-1.336-2.053-0.624-2.853-1.872-2.853-1.872s0.179 0.088 0.447 0.267h0.080c0.040 0 0.059 0.020 0.080 0.040v0.008c0.021 0.021 0.040 0.040 0.080 0.040 0.44 0.181 0.88 0.36 1.24 0.533 0.621 0.269 1.42 0.537 2.4 0.715 1.24 0.18 2.661 0.267 4.28 0 0.8-0.18 1.6-0.356 2.4-0.713 0.52-0.267 1.16-0.533 1.863-0.983 0 0-0.8 1.248-2.94 1.872 0.44 0.621 1.060 1.333 1.060 1.333 3.659-0.080 5.080-2.4 5.16-2.301 0-5.16-2.42-9.36-2.42-9.36-2.18-1.619-4.22-1.68-4.58-1.68zM19.029 13.461c0.937 0 1.693 0.8 1.693 1.78 0 0.987-0.76 1.787-1.693 1.787s-1.693-0.8-1.693-1.779c0.003-0.987 0.764-1.784 1.693-1.788zM12.972 13.461c0.933 0 1.688 0.8 1.688 1.78 0 0.987-0.76 1.787-1.693 1.787s-1.693-0.8-1.693-1.779c0-0.987 0.76-1.784 1.699-1.788z"></path>
</symbol>
<symbol id="icon-github" viewBox="0 0 32 32">
<path d="M16 0.396c-8.84 0-16 7.164-16 16 0 7.071 4.584 13.067 10.94 15.18 0.8 0.151 1.093-0.344 1.093-0.769 0-0.38-0.013-1.387-0.020-2.72-4.451 0.965-5.389-2.147-5.389-2.147-0.728-1.847-1.78-2.34-1.78-2.34-1.449-0.992 0.112-0.972 0.112-0.972 1.607 0.112 2.451 1.648 2.451 1.648 1.427 2.447 3.745 1.74 4.66 1.331 0.144-1.035 0.556-1.74 1.013-2.14-3.553-0.4-7.288-1.776-7.288-7.907 0-1.747 0.62-3.173 1.647-4.293-0.18-0.404-0.72-2.031 0.14-4.235 0 0 1.34-0.429 4.4 1.64 1.28-0.356 2.64-0.532 4-0.54 1.36 0.008 2.72 0.184 4 0.54 3.040-2.069 4.38-1.64 4.38-1.64 0.86 2.204 0.32 3.831 0.16 4.235 1.020 1.12 1.64 2.547 1.64 4.293 0 6.147-3.74 7.5-7.3 7.893 0.56 0.48 1.080 1.461 1.080 2.96 0 2.141-0.020 3.861-0.020 4.381 0 0.42 0.28 0.92 1.1 0.76 6.401-2.099 10.981-8.099 10.981-15.159 0-8.836-7.164-16-16-16z"></path>
</symbol>
<symbol id="icon-linux" viewBox="0 0 32 32">
<path d="M16.671 0c-0.207 0-0.42 0.011-0.639 0.028-5.636 0.444-4.141 6.409-4.227 8.397-0.103 1.457-0.4 2.605-1.401 4.028-1.18 1.401-2.836 3.667-3.621 6.028-0.371 1.109-0.547 2.245-0.383 3.319-0.052 0.045-0.101 0.091-0.148 0.18-0.347 0.357-0.599 0.801-0.883 1.119-0.265 0.265-0.647 0.356-1.063 0.533-0.417 0.181-0.877 0.359-1.152 0.908-0.12 0.251-0.181 0.524-0.176 0.801 0 0.265 0.036 0.535 0.073 0.715 0.077 0.532 0.155 0.972 0.052 1.293-0.331 0.907-0.372 1.528-0.14 1.98 0.232 0.445 0.713 0.625 1.252 0.801 1.081 0.267 2.547 0.18 3.7 0.799 1.235 0.623 2.488 0.895 3.488 0.627 0.701-0.153 1.293-0.617 1.611-1.26 0.783-0.004 1.64-0.359 3.013-0.445 0.932-0.077 2.099 0.356 3.437 0.265 0.033 0.18 0.084 0.265 0.152 0.445l0.004 0.004c0.521 1.037 1.484 1.509 2.512 1.428 1.028-0.080 2.123-0.715 3.009-1.741 0.841-1.020 2.244-1.445 3.171-2.004 0.464-0.265 0.839-0.625 0.865-1.137 0.031-0.533-0.265-1.083-0.952-1.836v-0.129l-0.004-0.004c-0.227-0.267-0.333-0.713-0.451-1.235-0.113-0.535-0.243-1.048-0.656-1.395h-0.004c-0.079-0.072-0.164-0.089-0.251-0.18-0.075-0.051-0.161-0.083-0.253-0.085 0.575-1.704 0.352-3.4-0.231-4.925-0.711-1.88-1.953-3.517-2.9-4.644-1.061-1.34-2.101-2.609-2.081-4.492 0.036-2.869 0.316-8.177-4.725-8.185zM17.376 4.54h0.017c0.284 0 0.528 0.083 0.779 0.264 0.255 0.18 0.44 0.443 0.585 0.711 0.14 0.345 0.211 0.612 0.221 0.965 0-0.027 0.008-0.053 0.008-0.079v0.139c-0.003-0.009-0.005-0.020-0.005-0.028l-0.005-0.032c-0.003 0.324-0.071 0.644-0.2 0.941-0.063 0.167-0.159 0.32-0.284 0.447-0.039-0.021-0.076-0.040-0.117-0.056-0.14-0.060-0.265-0.085-0.38-0.177-0.095-0.037-0.193-0.068-0.292-0.088 0.065-0.079 0.193-0.177 0.243-0.264 0.071-0.171 0.109-0.352 0.117-0.536v-0.025c0.003-0.18-0.024-0.361-0.081-0.533-0.060-0.18-0.135-0.268-0.244-0.445-0.112-0.088-0.223-0.176-0.356-0.176h-0.021c-0.124 0-0.235 0.040-0.349 0.176-0.127 0.125-0.221 0.276-0.273 0.445-0.071 0.169-0.112 0.352-0.12 0.533v0.025c0.003 0.119 0.011 0.239 0.027 0.356-0.257-0.089-0.584-0.18-0.809-0.269-0.013-0.087-0.021-0.176-0.024-0.265v-0.027c-0.011-0.352 0.057-0.701 0.2-1.025 0.109-0.292 0.309-0.541 0.573-0.711 0.228-0.172 0.505-0.265 0.792-0.265zM13.427 4.619h0.048c0.189 0 0.36 0.064 0.532 0.18 0.195 0.172 0.352 0.384 0.459 0.62 0.12 0.265 0.188 0.535 0.204 0.889v0.005c0.009 0.179 0.008 0.268-0.003 0.355v0.107c-0.040 0.009-0.075 0.024-0.111 0.032-0.203 0.073-0.365 0.18-0.524 0.267 0.016-0.119 0.017-0.239 0.004-0.356v-0.020c-0.016-0.177-0.052-0.265-0.109-0.444-0.041-0.136-0.117-0.257-0.221-0.356-0.065-0.060-0.153-0.091-0.244-0.085h-0.028c-0.095 0.008-0.173 0.055-0.248 0.176-0.085 0.103-0.14 0.228-0.16 0.36-0.036 0.144-0.047 0.292-0.031 0.441v0.019c0.016 0.18 0.049 0.268 0.108 0.445 0.060 0.179 0.129 0.267 0.22 0.357 0.015 0.012 0.028 0.024 0.045 0.032-0.093 0.076-0.156 0.093-0.235 0.181-0.049 0.037-0.107 0.080-0.175 0.091-0.139-0.167-0.261-0.347-0.367-0.536-0.128-0.28-0.195-0.584-0.207-0.889-0.023-0.301 0.015-0.603 0.107-0.891 0.073-0.263 0.203-0.505 0.377-0.713 0.171-0.177 0.347-0.267 0.557-0.267zM15.255 6.893c0.441 0 0.976 0.087 1.62 0.532 0.391 0.267 0.697 0.359 1.404 0.624h0.004c0.34 0.181 0.54 0.355 0.637 0.532v-0.175c0.097 0.196 0.104 0.424 0.021 0.627-0.164 0.415-0.688 0.859-1.419 1.124v0.003c-0.357 0.18-0.668 0.444-1.033 0.62-0.368 0.18-0.784 0.389-1.349 0.356-0.203 0.011-0.407-0.020-0.597-0.089-0.147-0.080-0.291-0.168-0.429-0.264-0.26-0.18-0.484-0.443-0.816-0.62v-0.007h-0.007c-0.533-0.328-0.821-0.683-0.915-0.948-0.092-0.357-0.007-0.625 0.257-0.8 0.299-0.18 0.507-0.361 0.644-0.448 0.139-0.099 0.191-0.136 0.235-0.175h0.003v-0.004c0.225-0.269 0.581-0.625 1.119-0.801 0.185-0.048 0.392-0.087 0.621-0.087zM18.987 9.751c0.479 1.889 1.596 4.633 2.315 5.964 0.381 0.712 1.14 2.212 1.469 4.032 0.208-0.007 0.439 0.024 0.684 0.085 0.861-2.228-0.728-4.623-1.452-5.288-0.295-0.268-0.309-0.447-0.164-0.447 0.785 0.712 1.82 2.096 2.195 3.676 0.172 0.713 0.212 1.472 0.028 2.227 0.089 0.037 0.18 0.081 0.273 0.089 1.376 0.712 1.884 1.251 1.64 2.049v-0.057c-0.081-0.004-0.16 0-0.241 0h-0.020c0.201-0.623-0.243-1.1-1.42-1.632-1.22-0.533-2.195-0.448-2.361 0.62-0.009 0.057-0.016 0.088-0.023 0.18-0.091 0.031-0.185 0.071-0.279 0.085-0.573 0.357-0.883 0.892-1.057 1.583-0.173 0.711-0.227 1.541-0.273 2.492v0.004c-0.028 0.445-0.228 1.117-0.425 1.801-2 1.429-4.773 2.051-7.132 0.445-0.148-0.257-0.328-0.499-0.536-0.711-0.099-0.167-0.224-0.316-0.367-0.445 0.243 0 0.451-0.039 0.62-0.089 0.193-0.089 0.343-0.251 0.419-0.445 0.144-0.356 0-0.929-0.46-1.551-0.46-0.623-1.241-1.327-2.384-2.028-0.84-0.532-1.315-1.16-1.533-1.861-0.22-0.712-0.191-1.447-0.020-2.193 0.327-1.427 1.164-2.813 1.699-3.684 0.143-0.087 0.049 0.18-0.544 1.299-0.528 1.001-1.521 3.329-0.163 5.139 0.051-1.319 0.344-2.62 0.863-3.835 0.752-1.704 2.324-4.672 2.448-7.024 0.064 0.048 0.289 0.18 0.385 0.269 0.291 0.177 0.507 0.444 0.787 0.62 0.281 0.268 0.636 0.447 1.168 0.447 0.052 0.004 0.1 0.008 0.148 0.008 0.548 0 0.972-0.179 1.328-0.357 0.387-0.179 0.695-0.445 0.987-0.533h0.007c0.623-0.18 1.115-0.536 1.393-0.933zM21.901 21.695c0.049 0.801 0.457 1.66 1.176 1.836 0.784 0.179 1.912-0.444 2.388-1.020l0.281-0.012c0.42-0.011 0.769 0.013 1.129 0.356l0.004 0.004c0.277 0.265 0.407 0.708 0.521 1.168 0.113 0.535 0.205 1.040 0.545 1.421 0.648 0.703 0.86 1.208 0.848 1.52l0.004-0.008v0.024l-0.004-0.016c-0.020 0.349-0.247 0.528-0.664 0.793-0.84 0.535-2.328 0.949-3.276 2.093-0.824 0.983-1.828 1.519-2.715 1.588-0.885 0.071-1.649-0.267-2.099-1.197l-0.007-0.004c-0.28-0.535-0.16-1.367 0.075-2.253 0.235-0.891 0.571-1.793 0.617-2.531 0.049-0.952 0.101-1.78 0.26-2.419 0.16-0.62 0.411-1.063 0.855-1.312zM7.481 21.76h0.013c0.071 0 0.14 0.007 0.209 0.019 0.501 0.073 0.941 0.444 1.364 1.003l1.213 2.219 0.004 0.004c0.324 0.711 1.005 1.419 1.585 2.184 0.579 0.797 1.027 1.508 0.972 2.093v0.008c-0.076 0.992-0.639 1.531-1.5 1.725-0.86 0.18-2.027 0.003-3.193-0.619-1.291-0.715-2.824-0.625-3.809-0.803-0.492-0.088-0.815-0.268-0.964-0.535-0.148-0.265-0.151-0.801 0.164-1.64v-0.004l0.003-0.004c0.156-0.445 0.040-1.004-0.036-1.492-0.073-0.535-0.111-0.945 0.057-1.253 0.213-0.445 0.528-0.532 0.919-0.711 0.393-0.18 0.855-0.269 1.221-0.625h0.003v-0.004c0.341-0.357 0.593-0.801 0.891-1.117 0.253-0.268 0.507-0.448 0.884-0.448zM17.027 9.661c-0.58 0.268-1.26 0.713-1.984 0.713-0.723 0-1.293-0.356-1.705-0.621-0.207-0.179-0.373-0.357-0.499-0.447-0.219-0.179-0.192-0.445-0.099-0.445 0.145 0.021 0.172 0.18 0.265 0.268 0.128 0.088 0.287 0.265 0.481 0.444 0.388 0.267 0.907 0.623 1.555 0.623 0.647 0 1.404-0.356 1.864-0.621 0.26-0.18 0.593-0.445 0.864-0.623 0.208-0.183 0.199-0.357 0.372-0.357 0.172 0.021 0.045 0.179-0.196 0.444-0.241 0.18-0.615 0.447-0.92 0.624zM15.584 7.549v-0.029c-0.008-0.025 0.017-0.056 0.039-0.067 0.099-0.057 0.24-0.036 0.347 0.005 0.084 0 0.213 0.089 0.2 0.18-0.008 0.065-0.113 0.088-0.18 0.088-0.073 0-0.123-0.057-0.188-0.091-0.069-0.024-0.195-0.011-0.217-0.087zM14.849 7.549c-0.027 0.077-0.151 0.065-0.221 0.088-0.063 0.033-0.115 0.091-0.185 0.091-0.068 0-0.175-0.025-0.183-0.091-0.012-0.088 0.117-0.177 0.2-0.177 0.108-0.041 0.245-0.063 0.345-0.007 0.025 0.012 0.048 0.040 0.040 0.067v0.028z"></path>
</symbol>
<symbol id="icon-freebsd" viewBox="0 0 32 32">
<path d="M31.633 0.784c1.697 1.696-3.005 9.149-3.8 9.944-0.796 0.795-2.815 0.064-4.511-1.632s-2.427-3.716-1.632-4.511 8.248-5.497 9.943-3.801zM7.847 2.579c-2.589-1.469-6.273-3.104-7.447-1.932-1.187 1.187 0.507 4.956 1.992 7.551 1.32-2.297 3.2-4.232 5.455-5.619zM29.047 10.144c0.239 0.808 0.196 1.476-0.191 1.863-0.904 0.904-3.344-0.059-5.543-2.152-0.163-0.146-0.311-0.286-0.456-0.431l0 0c-0.796-0.796-1.413-1.643-1.811-2.423-0.771-1.381-0.963-2.603-0.38-3.184 0.317-0.317 0.824-0.404 1.444-0.293 0.404-0.255 0.88-0.54 1.403-0.831-2.055-1.093-4.493-1.735-7.082-1.735-0.009 0-0.018 0-0.026 0h0.001c-8.504 0-15.397 6.893-15.397 15.397 0 8.503 6.893 15.397 15.397 15.397s15.399-6.893 15.399-15.397c0-2.747-0.72-5.321-1.98-7.555-0.324 0.598-0.583 1.037-0.852 1.468l0.073-0.125z"></path>
</symbol>
<symbol id="icon-apple" viewBox="0 0 32 32">
<path d="M9.437 31.4c-0.631-0.421-1.191-0.937-1.659-1.533-0.511-0.617-0.984-1.267-1.419-1.939-1.021-1.493-1.82-3.127-2.373-4.848-0.667-2.003-0.991-3.92-0.991-5.796 0-2.093 0.453-3.92 1.336-5.453 0.653-1.2 1.627-2.204 2.8-2.909 1.133-0.707 2.453-1.093 3.787-1.12 0.467 0 0.973 0.067 1.507 0.2 0.387 0.107 0.853 0.28 1.427 0.493 0.733 0.28 1.133 0.453 1.267 0.493 0.427 0.16 0.787 0.227 1.067 0.227 0.213 0 0.52-0.067 0.86-0.173 0.193-0.067 0.56-0.187 1.080-0.413 0.515-0.187 0.923-0.347 1.247-0.467 0.493-0.147 0.971-0.28 1.4-0.347 0.52-0.080 1.036-0.107 1.531-0.067 0.947 0.067 1.813 0.267 2.587 0.56 1.36 0.547 2.457 1.4 3.276 2.613-0.347 0.213-0.667 0.461-0.967 0.733-0.649 0.573-1.2 1.253-1.64 2.007-0.573 1.027-0.867 2.187-0.859 3.36 0.020 1.444 0.387 2.713 1.12 3.813 0.516 0.8 1.205 1.485 2.045 2.048 0.413 0.28 0.776 0.473 1.12 0.6-0.16 0.5-0.336 0.987-0.54 1.467-0.463 1.076-1.013 2.107-1.667 3.080-0.576 0.84-1.029 1.467-1.373 1.88-0.536 0.64-1.053 1.12-1.573 1.463-0.573 0.38-1.247 0.581-1.936 0.581-0.467 0.020-0.933-0.040-1.379-0.169-0.387-0.127-0.768-0.269-1.141-0.431-0.391-0.179-0.795-0.331-1.207-0.453-0.507-0.133-1.027-0.197-1.552-0.196-0.533 0-1.053 0.067-1.547 0.193-0.413 0.117-0.813 0.261-1.209 0.433-0.56 0.233-0.927 0.387-1.14 0.453-0.432 0.128-0.875 0.205-1.32 0.233-0.693 0-1.339-0.2-1.964-0.617zM18.576 6.787c-0.907 0.453-1.768 0.645-2.631 0.581-0.133-0.861 0-1.747 0.36-2.716 0.32-0.827 0.747-1.573 1.333-2.24 0.613-0.693 1.347-1.267 2.173-1.68 0.88-0.453 1.72-0.693 2.52-0.733 0.107 0.907 0 1.8-0.333 2.76-0.304 0.853-0.757 1.64-1.333 2.347-0.58 0.693-1.3 1.267-2.089 1.681z"></path>
</symbol>
<symbol id="icon-windows" viewBox="0 0 32 32">
<path d="M0 4.599l13-1.799v12.601h-13zM14.599 2.599l17.401-2.599v15.2h-17.401zM0 16.8h13v12.601l-13-1.803zM14.599 16.8h17.401v15.2l-17.2-2.401z"></path>
</symbol>
<symbol id="icon-x" viewBox="0 0 36 36">
<path d="M35.25 4.223l-13.777 13.777 13.777 13.777-3.473 3.473-13.777-13.777-13.777 13.777-3.473-3.473 13.777-13.777-13.777-13.777 3.473-3.473 13.777 13.777 13.777-13.777z"></path>
</symbol>
<symbol id="icon-chevron-up" viewBox="0 0 20 20">
<path d="M15.484 12.452c-0.436 0.446-1.043 0.481-1.576 0l-3.908-3.747-3.908 3.747c-0.533 0.481-1.141 0.446-1.574 0-0.436-0.445-0.408-1.197 0-1.615 0.406-0.418 4.695-4.502 4.695-4.502 0.217-0.223 0.502-0.335 0.787-0.335s0.57 0.112 0.789 0.335c0 0 4.287 4.084 4.695 4.502s0.436 1.17 0 1.615z"></path>
</symbol>
<symbol id="icon-chevron-down" viewBox="0 0 20 20">
<path d="M4.516 7.548c0.436-0.446 1.043-0.481 1.576 0l3.908 3.747 3.908-3.747c0.533-0.481 1.141-0.446 1.574 0 0.436 0.445 0.408 1.197 0 1.615-0.406 0.418-4.695 4.502-4.695 4.502-0.217 0.223-0.502 0.335-0.787 0.335s-0.57-0.112-0.789-0.335c0 0-4.287-4.084-4.695-4.502s-0.436-1.17 0-1.615z"></path>
</symbol>
<symbol id="icon-chevron-left" viewBox="0 0 20 20">
<path d="M12.452 4.516c0.446 0.436 0.481 1.043 0 1.576l-3.747 3.908 3.747 3.908c0.481 0.533 0.446 1.141 0 1.574-0.445 0.436-1.197 0.408-1.615 0-0.418-0.406-4.502-4.695-4.502-4.695-0.223-0.217-0.335-0.502-0.335-0.787s0.112-0.57 0.335-0.789c0 0 4.084-4.287 4.502-4.695s1.17-0.436 1.615 0z"></path>
</symbol>
<symbol id="icon-chevron-right" viewBox="0 0 20 20">
<path d="M9.163 4.516c0.418 0.408 4.502 4.695 4.502 4.695 0.223 0.219 0.335 0.504 0.335 0.789s-0.112 0.57-0.335 0.787c0 0-4.084 4.289-4.502 4.695-0.418 0.408-1.17 0.436-1.615 0-0.446-0.434-0.481-1.041 0-1.574l3.747-3.908-3.747-3.908c-0.481-0.533-0.446-1.141 0-1.576s1.197-0.409 1.615 0z"></path>
</symbol>
<symbol id="icon-question" viewBox="0 0 20 20">
<path d="M10 20c-5.523 0-10-4.477-10-10s4.477-10 10-10v0c5.523 0 10 4.477 10 10s-4.477 10-10 10v0zM12 7c0 0.28-0.21 0.8-0.42 1l-1.58 1.58c-0.57 0.58-1 1.6-1 2.42v1h2v-1c0-0.29 0.21-0.8 0.42-1l1.58-1.58c0.57-0.58 1-1.6 1-2.42 0-2.209-1.791-4-4-4s-4 1.791-4 4v0h2c0-1.105 0.895-2 2-2s2 0.895 2 2v0zM9 15v2h2v-2h-2z"></path>
</symbol>
<symbol id="icon-lock" viewBox="0 0 20 20">
<path d="M4 8v-2c0-3.314 2.686-6 6-6s6 2.686 6 6v0 2h1c1.105 0 2 0.895 2 2v0 8c0 1.105-0.895 2-2 2v0h-14c-1.105 0-2-0.895-2-2v0-8c0-1.1 0.9-2 2-2h1zM9 14.73v2.27h2v-2.27c0.602-0.352 1-0.996 1-1.732 0-1.105-0.895-2-2-2s-2 0.895-2 2c0 0.736 0.398 1.38 0.991 1.727l0.009 0.005zM7 6v2h6v-2c0-1.657-1.343-3-3-3s-3 1.343-3 3v0z"></path>
</symbol>
<symbol id="icon-menu" viewBox="0 0 20 20">
<path d="M0 3h20v2h-20v-2zM0 9h20v2h-20v-2zM0 15h20v2h-20v-2z"></path>
</symbol>
<symbol id="icon-wrench" viewBox="0 0 20 20">
<path d="M6.47 9.8c-0.485 0.172-1.043 0.272-1.625 0.272-2.761 0-5-2.239-5-5 0-0.667 0.131-1.303 0.368-1.885l-0.012 0.033 3.95 3.95 2.82-2.83-3.94-3.93c0.542-0.219 1.171-0.347 1.829-0.347 2.761 0 5 2.239 5 5 0 0.734-0.158 1.43-0.442 2.058l0.013-0.031 10 10-2.83 2.83-10.13-10.12z"></path>
</symbol>
<symbol id="icon-conversation" viewBox="0 0 20 20">
<path d="M17 11v3l-3-3h-6c-1.105 0-2-0.895-2-2v0-7c0-1.1 0.9-2 2-2h10c1.105 0 2 0.895 2 2v0 7c0 1.105-0.895 2-2 2v0h-1zM14 13v2c0 1.105-0.895 2-2 2v0h-6l-3 3v-3h-1c-1.105 0-2-0.895-2-2v0-7c0-1.1 0.9-2 2-2h2v3c0 2.209 1.791 4 4 4v0h6z"></path>
</symbol>
<symbol id="icon-download" viewBox="0 0 20 20">
<path d="M13 8v-6h-6v6h-5l8 8 8-8h-5zM0 18h20v2h-20v-2z"></path>
</symbol>
</defs>
</svg>
