<?xml version="1.0" encoding="UTF-8" standalone="no"?><!DOCTYPE svg PUBLIC "-//W3C//DTD SVG 1.1//EN" "http://www.w3.org/Graphics/SVG/1.1/DTD/svg11.dtd"><svg width="20px" height="20px" viewBox="0 0 20 20" version="1.1" xmlns="http://www.w3.org/2000/svg" xmlns:xlink="http://www.w3.org/1999/xlink" xml:space="preserve" xmlns:serif="http://www.serif.com/" style="fill-rule:evenodd;clip-rule:evenodd;stroke-linejoin:round;stroke-miterlimit:2;"><g><path d="M2.5,2.5l0,5.5l-1.5,0l0,-7l7,0l0,1.5l-5.5,0Z" style="fill-opacity:0.25;"/><path d="M17.5,2.5l-5.5,0l0,-1.5l7,0l0,7l-1.5,0l0,-5.5Z" style="fill-opacity:0.25;"/><path d="M17.5,17.5l0,-5.5l1.5,0l0,7l-7,0l0,-1.5l5.5,0Z" style="fill-opacity:0.25;"/><path d="M2.5,17.5l5.5,0l0,1.5l-7,0l0,-7l1.5,0l0,5.5Z" style="fill-opacity:0.25;"/></g><g><path d="M1.5,1.5l0,5.5l-1.5,0l0,-7l7,0l0,1.5l-5.5,0Z" style="fill:#fff;"/><path d="M18.5,1.5l-5.5,0l0,-1.5l7,0l0,7l-1.5,0l0,-5.5Z" style="fill:#fff;"/><path d="M18.5,18.5l0,-5.5l1.5,0l0,7l-7,0l0,-1.5l5.5,0Z" style="fill:#fff;"/><path d="M1.5,18.5l5.5,0l0,1.5l-7,0l0,-7l1.5,0l0,5.5Z" style="fill:#fff;"/></g></svg>